<svg xmlns="http://www.w3.org/2000/svg" width="24" height="24" fill="none" viewBox="0 0 24 24">
  <path fill="#fff" stroke="#fff" stroke-width=".3" d="M13.454 2.861a9.15 9.15 0 0 1 0 18.278L13 21.15a9.102 9.102 0 0 1-6.467-2.684l-.105-.107.106-.105 1.527-1.527.105.107A6.795 6.795 0 0 0 13 18.85 6.844 6.844 0 0 0 19.85 12 6.844 6.844 0 0 0 13 5.15a6.842 6.842 0 0 0-6.846 6.7h3.208l-.257.256-4.039 4.03-.147.147-.093-.186-.06-.119-3.872-3.872-.256-.256h3.216a9.147 9.147 0 0 1 9.146-9l.454.011Zm.196 4.989v4.215l3.447 2.046.13.077-.079.13-.77 1.28-.076.127-.128-.076-4.25-2.52-.074-.044V7.85h1.8Z"/>
</svg>
