<svg width="24" height="24" viewBox="0 0 24 24" fill="none" xmlns="http://www.w3.org/2000/svg">
    <path d="M18 8C19.6569 8 21 6.65685 21 5C21 3.34315 19.6569 2 18 2C16.3431 2 15 3.34315 15 5C15 5.12548 15.0077 5.24917 15.0227 5.37061L8.08261 9.33945C7.54305 8.52833 6.6582 8 5.66667 8C4.19391 8 3 9.19391 3 10.6667C3 12.1394 4.19391 13.3333 5.66667 13.3333C6.6582 13.3333 7.54305 12.805 8.08261 11.9939L15.0227 15.9627C15.0077 16.0842 15 16.2079 15 16.3333C15 17.9902 16.3431 19.3333 18 19.3333C19.6569 19.3333 21 17.9902 21 16.3333C21 14.6765 19.6569 13.3333 18 13.3333C17.0085 13.3333 16.1236 13.8616 15.584 14.6728L8.64397 10.704C8.65897 10.5825 8.66667 10.4588 8.66667 10.3333C8.66667 10.2079 8.65897 10.0842 8.64397 9.96275L15.584 5.99391C16.1236 6.80503 17.0085 7.33333 18 7.33333" stroke="white" stroke-width="2" stroke-linecap="round" stroke-linejoin="round"/>
</svg> 