<svg xmlns="http://www.w3.org/2000/svg" width="24" height="24" fill="none" viewBox="0 0 24 24">
  <path fill="#fff" fill-rule="evenodd" d="M20 3a2 2 0 0 1 1.995 1.85L22 5v14a2 2 0 0 1-1.85 1.995L20 21H4a2 2 0 0 1-1.995-1.85L2 19V5a2 2 0 0 1 1.85-1.995L4 3h16Zm0 2H4v14h16V5Z" clip-rule="evenodd"/>
  <path fill="#fff" fill-rule="evenodd" d="M20 5H4v14h16V5Z" clip-rule="evenodd"/>
  <path fill="#000" fill-rule="evenodd" d="m10.34 7.638.518.23.338.16.387.19.43.218.47.25.507.28.266.152.518.305.474.292.43.273.38.253.48.33.364.263.095.07a1.233 1.233 0 0 1 0 1.98l-.323.235-.44.308-.356.239-.405.263-.453.283-.499.3-.534.309-.509.282-.47.25-.43.22-.387.188-.622.288-.23.1a1.236 1.236 0 0 1-1.714-.99l-.058-.565-.032-.374-.042-.664-.023-.508-.015-.555-.004-.294-.002-.305c0-.207.002-.407.006-.6l.015-.555.023-.507.027-.457.03-.401.075-.744a1.235 1.235 0 0 1 1.715-.992Zm.611 2.501-.436-.218-.029.487-.022.551-.013.61-.002.325.002.325.013.609.01.283.026.52.015.235.434-.218.487-.256.535-.294.284-.162.551-.326.494-.306.436-.28.196-.13-.407-.27-.466-.294a29.69 29.69 0 0 0-.803-.48l-.283-.161-.534-.294-.488-.256Z" clip-rule="evenodd"/>
  <path fill="#000" d="m10.951 10.139-.436-.218-.029.487-.022.551-.013.61-.002.325.002.325.013.609.01.283.026.52.015.235.434-.218.487-.256.535-.294.284-.162.551-.326.494-.306.436-.28.196-.13-.407-.27-.466-.294a29.69 29.69 0 0 0-.803-.48l-.283-.161-.534-.294-.488-.256Z"/>
</svg>
