<svg xmlns="http://www.w3.org/2000/svg" width="24" height="24" fill="none" viewBox="0 0 24 24">
  <path fill="#fff" fill-rule="evenodd" d="M14.062 5.62a37 37 0 0 0-7.118-.055l-1.582.141A2.835 2.835 0 0 0 2.81 8.12a26.8 26.8 0 0 0 0 7.76 2.836 2.836 0 0 0 2.553 2.414l1.582.14c2.37.21 4.753.193 7.118-.054l.608-.064a2.845 2.845 0 0 0 2.493-2.272l3.047 1.618a.75.75 0 0 0 1.1-.597l.024-.284a55.01 55.01 0 0 0 0-9.563l-.025-.284a.75.75 0 0 0-1.1-.596l-3.046 1.618a2.845 2.845 0 0 0-2.493-2.272l-.609-.064ZM7.078 7.06a35.3 35.3 0 0 1 6.827.052l.608.064a1.346 1.346 0 0 1 1.19 1.143c.358 2.441.358 4.92 0 7.362a1.346 1.346 0 0 1-1.19 1.143l-.608.064a35.297 35.297 0 0 1-6.827.053L5.496 16.8a1.336 1.336 0 0 1-1.203-1.136 25.3 25.3 0 0 1 0-7.326A1.335 1.335 0 0 1 5.496 7.2l1.582-.14ZM17.36 9.55c.15 1.63.15 3.27 0 4.9l2.547 1.353a53.017 53.017 0 0 0 0-7.606L17.36 9.55Z" clip-rule="evenodd"/>
</svg>
