<svg xmlns="http://www.w3.org/2000/svg" width="160" height="35" viewBox="0 0 160 35" fill="none">
  <path d="M7.59891 12.3519V33.9999H0.878906V0.399902H9.42291L20.2709 25.9839L31.0709 0.399902H39.6149V33.9999H32.8949V12.4479L23.6309 33.9999H16.8629L7.59891 12.3519Z" fill="white"/>
  <path d="M52.7572 0.399902V33.9999H46.0372V0.399902H52.7572Z" fill="white"/>
  <path d="M68.9272 33.9999V6.5919H57.0232V0.399902H87.4552V6.5919H75.6472V33.9999H68.9272Z" fill="white"/>
  <path d="M107.474 28.1439C112.706 28.1439 116.402 24.1119 116.402 18.2559V0.399902H123.122V18.2559C123.122 27.5199 116.786 34.5759 107.474 34.5759C98.3538 34.5759 91.8258 27.5199 91.8258 18.2559V0.399902H98.5458V18.2559C98.5458 23.9679 102.338 28.1439 107.474 28.1439Z" fill="white"/>
  <path d="M129.485 33.9999V0.399902H146.477C153.437 0.399902 158.141 3.8559 158.141 9.1839C158.141 12.4959 156.077 15.2319 152.909 16.7679C157.085 18.1599 159.677 20.9439 159.677 24.6399C159.677 30.2559 154.061 33.9999 146.477 33.9999H129.485ZM151.709 10.2399C151.709 7.7919 149.501 6.1599 146.477 6.1599H136.205V14.2239H146.477C149.309 14.2239 151.709 12.5439 151.709 10.2399ZM152.909 24.0159C152.909 21.2799 150.509 19.7919 146.477 19.7919H136.205V28.1919H146.477C150.365 28.1919 152.909 26.6079 152.909 24.0159Z" fill="white"/>
</svg>